<svg width="25" height="25" viewBox="0 0 25 25" fill="none" xmlns="http://www.w3.org/2000/svg">
<path d="M12.2499 0C15.4988 0 18.6147 1.29057 20.912 3.58789C23.2094 5.88521 24.4999 9.0011 24.4999 12.25C24.4999 14.6728 23.7815 17.0412 22.4355 19.0557C21.0894 21.0702 19.1758 22.6402 16.9374 23.5674C14.6992 24.4944 12.2364 24.7372 9.86028 24.2646C7.48402 23.792 5.30101 22.6253 3.58782 20.9121C1.87463 19.1989 0.707951 17.0159 0.235283 14.6396C-0.237312 12.2635 0.00549378 9.80076 0.932548 7.5625C1.85972 5.32411 3.42977 3.4105 5.44427 2.06445C7.45875 0.718435 9.82714 9.8978e-07 12.2499 0ZM16.2685 2.54883C14.3499 1.75411 12.2379 1.547 10.2011 1.95215C8.16448 2.35735 6.29347 3.35685 4.82513 4.8252C3.35678 6.29354 2.35728 8.16454 1.95208 10.2012C1.54693 12.238 1.75404 14.3499 2.54876 16.2686C3.34349 18.1871 4.69026 19.8267 6.41692 20.9805C8.14356 22.1341 10.1734 22.75 12.2499 22.75C15.0347 22.75 17.7056 21.6439 19.6747 19.6748C21.6439 17.7057 22.7499 15.0348 22.7499 12.25C22.7499 10.1734 22.134 8.14363 20.9804 6.41699C19.8267 4.69033 18.187 3.34356 16.2685 2.54883ZM18.3749 9.11328L10.4999 16.9873L6.12493 12.6113L7.36126 11.375L10.4999 14.5127L17.1366 7.875L18.3749 9.11328Z" fill="url(#paint0_linear_3024_553)"/>
<defs>
<linearGradient id="paint0_linear_3024_553" x1="0" y1="12.25" x2="24.4999" y2="12.25" gradientUnits="userSpaceOnUse">
<stop stop-color="#A53E1B"/>
<stop offset="1" stop-color="#173998"/>
</linearGradient>
</defs>
</svg>
