<svg width="36" height="36" viewBox="0 0 36 36" fill="none" xmlns="http://www.w3.org/2000/svg">
<path d="M35.8945 32.5757L34.643 26.9647C34.4953 26.3038 33.9469 25.8468 33.3211 25.8468H32.5899L29.3906 22.4718C33.0399 13.4014 24.3985 3.84598 15.0117 6.5952L15.4055 4.82332C15.6235 3.97957 14.9766 3.00926 14.0836 3.02332H1.44142C0.548448 3.00926 -0.105459 3.97957 0.11251 4.82332L0.892979 8.32488L1.36407 10.4343C1.51173 11.0952 2.06017 11.5522 2.68595 11.5522H3.4172L6.70782 15.0257C4.26095 23.6952 12.5578 32.0554 21.2485 29.6788L20.6016 32.5757C20.3766 33.4264 21.0305 34.3897 21.9164 34.3757H34.5656C34.9594 34.3757 35.3391 34.1929 35.5992 33.8694C35.8875 33.5108 35.993 33.0397 35.8945 32.5757ZM22.9992 21.9093C23.3297 19.5538 23.3297 16.6499 22.9992 14.2944C26.9578 15.0257 29.3977 16.5374 29.4328 18.0983C29.3766 19.7014 26.9438 21.1639 22.9992 21.9093ZM29.257 16.1014C28.0406 14.9132 25.7555 13.971 22.8797 13.4858C22.3875 10.61 21.4524 8.32488 20.257 7.10848C24.8203 7.93113 28.4274 11.5382 29.257 16.1014ZM22.4719 18.0983C22.4719 19.5186 22.3735 20.8335 22.1977 22.0358C19.8492 22.3944 16.6711 22.3944 14.3227 22.0358C13.9641 19.6874 13.9641 16.5093 14.3227 14.1608C16.6711 13.8022 19.8492 13.8022 22.1977 14.1608C22.3735 15.3632 22.4719 16.678 22.4719 18.0983ZM18.1969 6.92566C19.8211 6.90457 21.3117 9.35848 22.0641 13.3593C19.7086 13.0288 16.8047 13.0288 14.4492 13.3593C15.1664 9.43582 16.7133 6.99598 18.1969 6.92566ZM16.2563 7.10848C15.068 8.32488 14.1328 10.603 13.6406 13.4788C10.7578 13.971 8.47267 14.9132 7.25626 16.1014C7.29142 15.9257 7.31954 15.7499 7.36173 15.5811C7.60079 15.6022 7.82579 15.3913 7.79064 15.1382C7.76251 14.8991 7.72735 14.66 7.69923 14.421C8.05079 13.4014 8.55001 12.4382 9.18986 11.5522H12.825C13.4578 11.5522 13.9992 11.0952 14.1469 10.4272L14.8078 7.46004C15.286 7.31238 15.7711 7.19988 16.2563 7.10848ZM7.32657 11.5593H8.2547C7.97345 11.9882 7.72735 12.4311 7.50235 12.8882C7.4461 12.4452 7.38282 12.0022 7.32657 11.5593ZM6.5672 11.7561C6.66564 12.5225 6.76407 13.296 6.86954 14.0624L3.8672 10.8983C3.78985 10.821 3.69142 10.7788 3.58595 10.7788H2.68595C2.42579 10.7788 2.19376 10.5679 2.12345 10.2725L0.871885 4.65457C0.808604 4.26082 0.963292 3.85301 1.43439 3.81082H14.0766C14.5477 3.85301 14.7094 4.26785 14.6391 4.65457L13.3875 10.2655C13.3172 10.5679 13.0922 10.7718 12.825 10.7718H6.88361C6.65157 10.7647 6.46173 10.9897 6.49689 11.2147L6.5672 11.7561ZM13.5211 14.2944C13.1906 16.6499 13.1906 19.5538 13.5211 21.9093C4.98517 20.285 4.9922 15.9116 13.5211 14.2944ZM7.26329 20.0952C8.4797 21.2905 10.7649 22.2257 13.6477 22.7179C14.1399 25.6007 15.075 27.8858 16.2703 29.0952C11.7 28.2725 8.08595 24.6655 7.26329 20.0952ZM18.2602 29.278C16.7555 29.278 15.1735 26.8241 14.4563 22.8374C16.8117 23.1679 19.7156 23.1679 22.0711 22.8374C21.3399 26.8241 19.7649 29.278 18.2602 29.278ZM20.257 29.0952C21.4453 27.8788 22.3875 25.5936 22.8797 22.7179C25.7555 22.2257 28.0406 21.2905 29.257 20.0952C29.1516 20.6929 28.9969 21.2835 28.786 21.86C28.5188 21.7124 28.1672 21.9444 28.2164 22.2538L28.3078 22.985C27.8016 24.0327 27.1336 24.996 26.318 25.8468H23.175C22.5422 25.8468 22.0008 26.3038 21.8531 26.9647L21.4383 28.821C21.0516 28.9335 20.6578 29.0249 20.257 29.0952ZM28.6805 25.8468H27.3656C27.7805 25.3616 28.1531 24.8413 28.4766 24.2999L28.6805 25.8468ZM34.9875 33.3772C34.875 33.5179 34.7274 33.5882 34.5656 33.5882H21.9235C21.7055 33.5882 21.5649 33.4546 21.5016 33.3702C21.368 33.2014 21.3188 32.9624 21.368 32.7374L22.6195 27.1335C22.6899 26.8311 22.9149 26.6202 23.182 26.6202H29.1305C29.3625 26.6272 29.5524 26.4022 29.5172 26.1772L29.1445 23.3366L32.1399 26.4936C32.2102 26.571 32.3156 26.6132 32.4211 26.6132H33.3141C33.5742 26.6132 33.8063 26.8241 33.8766 27.1194L35.1281 32.7233C35.1774 32.9694 35.1281 33.2085 34.9875 33.3772ZM28.6102 27.703H26.8875C26.6695 27.703 26.4938 27.8788 26.4938 28.0968V32.4561C26.4938 32.6741 26.6695 32.8499 26.8875 32.8499H28.6102C29.932 32.8639 30.4594 31.1343 29.5735 30.2764C30.4594 29.4186 29.932 27.6889 28.6102 27.703ZM29.2149 31.4577C29.2149 31.7952 28.9406 32.0624 28.6102 32.0624H27.2813V30.6632H28.6102C29.0391 30.6702 29.2641 31.0569 29.2149 31.4577ZM29.2149 29.278C29.2149 29.6155 28.9406 29.8827 28.6102 29.8827H27.2813V28.4835H28.6102C29.0391 28.4905 29.2641 28.8772 29.2149 29.278ZM8.10001 7.74129L8.8172 9.66785C9.00001 10.146 9.72423 9.87879 9.54845 9.39363L7.92423 5.03426C7.81173 4.70379 7.30548 4.70379 7.19298 5.03426L5.56876 9.39363C5.39298 9.87176 6.1172 10.146 6.30001 9.66785L7.0172 7.74129H8.10001ZM7.5586 6.29285L7.8047 6.96082H7.31251L7.5586 6.29285ZM21.2625 3.5366C21.0445 3.38895 21.0445 3.04441 21.2625 2.90379L23.3227 1.42723C23.7375 1.13191 24.1945 1.76473 23.7797 2.06004L22.7953 2.76316H33.968C34.186 2.76316 34.3617 2.93895 34.3617 3.15691V21.0514C34.3617 21.2694 34.186 21.4452 33.968 21.4452C33.75 21.4452 33.5742 21.2694 33.5742 21.0514V3.54363H22.6195L23.7727 4.37332C24.1875 4.67566 23.7305 5.30145 23.3156 5.00613L21.2625 3.5366ZM14.8359 32.4632C15.0539 32.6108 15.0539 32.9554 14.8359 33.096L12.7758 34.5725C12.3609 34.8679 11.9039 34.235 12.3188 33.9397L13.3031 33.2366H2.13048C1.91251 33.2366 1.73673 33.0608 1.73673 32.8429V14.9554C1.73673 14.7374 1.91251 14.5616 2.13048 14.5616C2.34845 14.5616 2.52423 14.7374 2.52423 14.9554V32.4561H13.4789L12.3258 31.6264C11.9109 31.3241 12.3609 30.6983 12.7828 30.9936L14.8359 32.4632Z" fill="url(#paint0_linear_496_14431)"/>
<defs>
<linearGradient id="paint0_linear_496_14431" x1="0.0703125" y1="17.9999" x2="35.9305" y2="17.9999" gradientUnits="userSpaceOnUse">
<stop stop-color="#A53E1B"/>
<stop offset="1" stop-color="#173998"/>
</linearGradient>
</defs>
</svg>
