<svg width="36" height="36" viewBox="0 0 36 36" fill="none" xmlns="http://www.w3.org/2000/svg">
<g clip-path="url(#clip0_497_14484)">
<path d="M26.4111 13.0427H29.7018L27.0724 19.0243" stroke="url(#paint0_linear_497_14484)" stroke-miterlimit="10" stroke-linecap="round" stroke-linejoin="round"/>
<path d="M20.2459 17.2588H16.4897C16.4897 17.2588 18.4785 13.6541 18.8067 13.2514C19.1386 12.8442 19.4528 13.0982 19.4827 13.4573C19.5127 13.8165 19.4678 19.0242 19.4678 19.0242" stroke="url(#paint1_linear_497_14484)" stroke-miterlimit="10" stroke-linecap="round" stroke-linejoin="round"/>
<path d="M15.5169 19.0692C15.5169 19.0692 12.6066 19.1057 12.4688 19.0598C12.3309 19.0138 12.6897 18.7711 14.5978 16.0449C14.9542 15.5357 15.1503 15.1062 15.2337 14.7463L15.2633 14.5149C15.2633 13.6696 14.5781 12.9844 13.7328 12.9844C12.9889 12.9844 12.3691 13.515 12.231 14.2183" stroke="url(#paint2_linear_497_14484)" stroke-miterlimit="10" stroke-linecap="round" stroke-linejoin="round"/>
<path d="M24.3637 13.0427L21.9614 19.0828" stroke="url(#paint3_linear_497_14484)" stroke-miterlimit="10" stroke-linecap="round" stroke-linejoin="round"/>
<path d="M1.71261 19.6114C0.896987 17.7766 0.388768 15.8443 0.560753 14.0266C0.603573 13.5745 0.812893 13.1543 1.13401 12.8333L3.78346 10.1838C4.54157 9.42574 5.79594 9.517 6.43628 10.3769L9.42892 14.3551C9.7487 14.7803 9.70187 15.3771 9.31951 15.747L7.381 17.623C7.14299 17.8533 7.09799 18.2185 7.27292 18.4997V18.4998C9.85297 22.6478 13.3523 26.1471 17.5003 28.7272C17.7815 28.902 18.1466 28.857 18.377 28.6191L20.2529 26.6806C20.6229 26.2983 21.2197 26.2514 21.6449 26.5712L25.6231 29.5638C26.483 30.2041 26.5743 31.4585 25.8162 32.2166L23.1667 34.8661C22.8341 35.1986 22.3946 35.4024 21.9261 35.4437C15.541 36.006 7.76757 28.2326 7.76757 28.2326C7.76757 28.2326 4.9401 25.4051 2.81898 21.76" stroke="url(#paint4_linear_497_14484)" stroke-miterlimit="10" stroke-linecap="round" stroke-linejoin="round"/>
<path d="M11.1997 6.2368C16.3613 1.60982 24.301 1.77681 29.2621 6.73785C34.396 11.8718 34.396 20.1954 29.2621 25.3294C27.831 26.7605 26.1522 27.7926 24.3635 28.4258" stroke="url(#paint5_linear_497_14484)" stroke-miterlimit="10" stroke-linecap="round" stroke-linejoin="round"/>
<path d="M7.55859 11.681C8.02589 10.3458 8.71502 9.07095 9.62606 7.91382" stroke="url(#paint6_linear_497_14484)" stroke-miterlimit="10" stroke-linecap="round" stroke-linejoin="round"/>
<path d="M31.636 5.82153C36.9767 11.9124 36.7417 21.1873 30.931 26.998C29.5549 28.3741 27.9845 29.4375 26.3081 30.1881" stroke="url(#paint7_linear_497_14484)" stroke-miterlimit="10" stroke-linecap="round" stroke-linejoin="round"/>
<path d="M5.82227 9.66899C6.57236 8.00125 7.63232 6.43883 9.00215 5.069C14.7463 -0.675175 23.8761 -0.970558 29.9684 4.183" stroke="url(#paint8_linear_497_14484)" stroke-miterlimit="10" stroke-linecap="round" stroke-linejoin="round"/>
</g>
<defs>
<linearGradient id="paint0_linear_497_14484" x1="26.4111" y1="16.0335" x2="29.7018" y2="16.0335" gradientUnits="userSpaceOnUse">
<stop stop-color="#A53E1B"/>
<stop offset="1" stop-color="#173998"/>
</linearGradient>
<linearGradient id="paint1_linear_497_14484" x1="16.4897" y1="16.0335" x2="20.2459" y2="16.0335" gradientUnits="userSpaceOnUse">
<stop stop-color="#A53E1B"/>
<stop offset="1" stop-color="#173998"/>
</linearGradient>
<linearGradient id="paint2_linear_497_14484" x1="12.231" y1="16.0337" x2="15.5169" y2="16.0337" gradientUnits="userSpaceOnUse">
<stop stop-color="#A53E1B"/>
<stop offset="1" stop-color="#173998"/>
</linearGradient>
<linearGradient id="paint3_linear_497_14484" x1="21.9614" y1="16.0628" x2="24.3637" y2="16.0628" gradientUnits="userSpaceOnUse">
<stop stop-color="#A53E1B"/>
<stop offset="1" stop-color="#173998"/>
</linearGradient>
<linearGradient id="paint4_linear_497_14484" x1="0.527344" y1="22.5709" x2="26.3311" y2="22.5709" gradientUnits="userSpaceOnUse">
<stop stop-color="#A53E1B"/>
<stop offset="1" stop-color="#173998"/>
</linearGradient>
<linearGradient id="paint5_linear_497_14484" x1="11.1997" y1="15.6566" x2="33.1125" y2="15.6566" gradientUnits="userSpaceOnUse">
<stop stop-color="#A53E1B"/>
<stop offset="1" stop-color="#173998"/>
</linearGradient>
<linearGradient id="paint6_linear_497_14484" x1="7.55859" y1="9.79738" x2="9.62606" y2="9.79738" gradientUnits="userSpaceOnUse">
<stop stop-color="#A53E1B"/>
<stop offset="1" stop-color="#173998"/>
</linearGradient>
<linearGradient id="paint7_linear_497_14484" x1="26.3081" y1="18.0048" x2="35.4727" y2="18.0048" gradientUnits="userSpaceOnUse">
<stop stop-color="#A53E1B"/>
<stop offset="1" stop-color="#173998"/>
</linearGradient>
<linearGradient id="paint8_linear_497_14484" x1="5.82227" y1="5.09817" x2="29.9684" y2="5.09817" gradientUnits="userSpaceOnUse">
<stop stop-color="#A53E1B"/>
<stop offset="1" stop-color="#173998"/>
</linearGradient>
<clipPath id="clip0_497_14484">
<rect width="36" height="36" fill="white"/>
</clipPath>
</defs>
</svg>
